<svg width="241" height="49" viewBox="0 0 241 49" fill="none" xmlns="http://www.w3.org/2000/svg">
<path d="M73.568 36.832C77.28 36.896 79.872 35.424 82.016 33.216L78.688 29.984C77.76 31.264 76.096 32.608 73.536 32.608C69.184 32.608 66.464 29.472 66.464 24.448C66.464 19.392 69.184 16.256 73.536 16.288C75.712 16.288 77.792 17.44 78.912 19.104L82.016 15.68C79.872 13.472 76.896 12.064 73.568 12.064C66.528 12.032 61.6 17.152 61.6 24.448C61.6 31.712 66.528 36.832 73.568 36.832ZM84.568 12.32V36.576H89.432V12.32H84.568ZM100.359 32.8C97.991 32.8 96.487 30.912 96.487 27.904C96.487 24.896 97.991 23.008 100.359 23.008C102.663 23.008 104.519 25.152 104.551 27.904C104.519 30.656 102.663 32.8 100.359 32.8ZM91.623 27.904C91.623 33.024 95.015 36.64 99.847 36.64C101.607 36.64 103.335 35.872 104.551 34.496V36.608L109.415 36.576V19.136H104.551V21.344C103.335 19.936 101.607 19.168 99.847 19.168C95.015 19.168 91.623 22.784 91.623 27.904ZM115.576 31.008L112.408 33.632C113.944 35.424 116.664 36.736 118.968 36.832C123.224 36.96 126.264 34.752 126.392 31.392C126.584 25.92 117.72 26.08 117.784 24.288C117.816 23.488 118.584 22.976 119.704 23.008C120.632 23.04 121.816 23.712 122.584 24.608L125.688 21.952C124.344 20.352 121.912 19.2 119.832 19.104C115.864 18.976 113.016 21.088 112.92 24.256C112.728 29.696 121.592 29.76 121.528 31.328C121.496 32.32 120.472 32.96 119.096 32.928C117.976 32.896 116.504 32.096 115.576 31.008ZM140.54 35.616L138.844 31.904C138.844 31.904 137.884 32.576 136.924 32.48C136.188 32.384 135.676 31.584 135.676 30.56V23.616H140.06V19.456H135.676V14.336H130.812V19.456H127.644V23.616H130.812V30.56C130.812 34.144 133.084 36.64 136.348 36.64C138.812 36.64 139.58 36.064 140.54 35.616ZM162.599 36.832C166.311 36.896 168.903 35.424 171.047 33.216L167.719 29.984C166.791 31.264 165.127 32.608 162.567 32.608C158.215 32.608 155.495 29.472 155.495 24.448C155.495 19.392 158.215 16.256 162.567 16.288C164.743 16.288 166.823 17.44 167.943 19.104L171.047 15.68C168.903 13.472 165.927 12.064 162.599 12.064C155.559 12.032 150.631 17.152 150.631 24.448C150.631 31.712 155.559 36.832 162.599 36.832ZM173.599 12.32V36.576H178.463V12.32H173.599ZM189.198 32.768C186.926 32.768 185.518 30.912 185.518 27.936C185.518 24.96 186.926 23.072 189.198 23.072C191.47 23.072 192.878 24.96 192.878 27.936C192.878 30.912 191.47 32.768 189.198 32.768ZM180.654 27.936C180.654 33.056 184.174 36.672 189.198 36.672C194.222 36.672 197.742 33.056 197.742 27.936C197.742 22.784 194.222 19.168 189.198 19.168C184.174 19.168 180.654 22.784 180.654 27.936ZM205.44 28.384V19.136H200.576V28.384C200.576 33.376 203.808 36.544 208.416 36.544C210.144 36.544 211.968 35.392 212.8 33.792V36.576H217.664V19.136H212.8V28.064C212.896 30.72 211.424 32.64 209.248 32.672C207.008 32.672 205.44 31.104 205.44 28.384ZM228.692 36.608C229.236 36.608 231.828 36.32 233.428 34.496V36.608H238.292V12.32H233.428V21.28C231.828 19.168 229.236 19.104 228.692 19.104C223.86 19.104 220.436 22.72 220.436 27.872C220.436 32.992 223.86 36.608 228.692 36.608ZM225.3 28C225.3 24.96 226.772 23.072 229.14 23.072C231.54 23.072 233.428 25.248 233.428 28C233.428 30.752 231.54 32.896 229.14 32.896C226.772 32.896 225.3 31.008 225.3 28Z" fill="white"/>
<path d="M27.747 24.6147L21.2613 24.3929C22.095 17.3089 27.6397 13.593 34.8358 13.6365C42.9971 13.593 49 20.2337 49 29.1319C49 39.1713 42.9096 45.325 34.6605 45.325C26.7186 45.325 21.9551 40.8329 21.253 35.1396C24.4368 33.8326 25.4784 32.42 27.4234 29.0284C27.2297 31.38 27.0056 32.0431 27.4234 34.4606C28.0377 37.7201 30.9747 39.632 34.485 39.6755C39.2677 39.632 42.4622 35.7814 42.4183 29.1319C42.4622 23.7974 39.4868 19.2425 34.6602 19.286C31.0622 19.2425 28.2296 21.1813 27.747 24.6147Z" fill="white"/>
<path d="M21.2613 24.3929L27.747 24.6147C26.9133 31.6987 21.3603 35.4835 14.1643 35.44C6.00293 35.4835 0 28.8429 0 19.9446C0 9.90529 6.09042 3.75156 14.3395 3.75156C22.2814 3.75156 27.0449 8.24366 27.747 13.9369C24.5632 15.2439 23.5216 16.6565 21.5766 20.0481C21.7703 17.6966 21.9944 17.0334 21.5766 14.616C20.9623 11.3564 18.0253 9.44452 14.515 9.40106C9.7323 9.44452 6.53783 13.2952 6.58171 19.9446C6.53783 25.2791 9.52145 29.7651 14.348 29.7216C17.946 29.7651 20.7787 27.8263 21.2613 24.3929Z" fill="white"/>
</svg>
